<?xml version="1.0" encoding="UTF-8"?><svg id="Layer_6" xmlns="http://www.w3.org/2000/svg" width="1872.56" height="1000" xmlns:xlink="http://www.w3.org/1999/xlink" viewBox="0 0 1872.56 1000"><defs><style>.cls-1{letter-spacing:0em;}.cls-2{letter-spacing:0em;}.cls-3{font-family:AcuminConcept-Semibold, 'Acumin Variable Concept';font-size:60px;font-variation-settings:'wght' 600, 'wdth' 100, 'slnt' 0;font-weight:600;}.cls-4{letter-spacing:0em;}.cls-5{letter-spacing:0em;}.cls-6{letter-spacing:0em;}.cls-7{letter-spacing:0em;}.cls-8{letter-spacing:-.01em;}.cls-9{fill:#3bceac;}.cls-9,.cls-10,.cls-11,.cls-12,.cls-13,.cls-14,.cls-15,.cls-16,.cls-17{stroke-width:0px;}.cls-10{fill:#540d6e;}.cls-11{fill:#ee4266;}.cls-18{letter-spacing:0em;}.cls-12{fill:#fff;}.cls-13{fill:#ffd23f;}.cls-14{fill:#5625ce;}.cls-19{letter-spacing:0em;}.cls-20{letter-spacing:-.02em;}.cls-15{fill:#0ead69;}.cls-21{letter-spacing:0em;}.cls-16{fill:#fefff3;}.cls-22{letter-spacing:0em;}.cls-23{letter-spacing:0em;}.cls-24{letter-spacing:0em;}.cls-25{letter-spacing:0em;}.cls-17{fill:url(#Degradado_sin_nombre_101);}</style><linearGradient id="Degradado_sin_nombre_101" x1="549.17" y1="527.38" x2="843.45" y2="527.38" gradientUnits="userSpaceOnUse"><stop offset=".19" stop-color="#bf2500"/><stop offset="1" stop-color="#f50000"/></linearGradient></defs><rect class="cls-16" width="1872.56" height="1000"/><path class="cls-12" d="M532.91,620.82s5.66,13.52,5.63,20.66c0,0-1.8.57-3.44.9,0,0-3.47-18.74-6-20.19l3.81-1.38Z"/><path class="cls-12" d="M626.89,617.44s-5.76,13.82-6.52,21.32c0,0,1.38,1,2.82,1.5,0,0,4.58-19.53,7.01-20.81l-3.31-2.02Z"/><path class="cls-17" d="M558.45,581.79c-9.14,12.97-9.28,27.38-9.27,28.5-.59,68.08,94.78,54.4,122.71,28.82,27.93-25.58-22.93-106.58-33.41-126.27-10.48-19.69-8.82-33.59-8.82-33.59,4.39-72.3,66.85-70.87,66.85-70.87h-.39s62.46-1.43,66.85,70.87c0,0,1.65,13.9-8.82,33.59-10.48,19.69-61.34,100.68-33.41,126.27,27.93,25.58,123.3,39.26,122.71-28.82,0-.8-.06-8.61-3.48-17.74l-11.67,2.48c.42.94.8,1.91,1.14,2.91,3.43,10.04,3.32,22.06-2.1,30.48-10.88,16.87-35.29,16.4-49.29,16.13-7.35-.14-19.72-1.24-34.37-7.15-13.42-5.41-20.89-19.77-17.37-33.8,9.83-39.21,66-98.87,49.22-152.27-3.13-9.95-14.5-33.41-40.03-46.96-11.74-6.23-25.49-9.65-39.37-9.69h.39c-13.88.04-27.63,3.46-39.37,9.69-25.53,13.55-36.9,37.01-40.03,46.96-16.78,53.4,39.39,113.06,49.22,152.27,3.52,14.03-3.95,28.39-17.37,33.8-14.64,5.9-27.01,7.01-34.37,7.15-14,.27-38.41.73-49.29-16.13-5.43-8.42-5.53-20.44-2.1-30.48,1.13-3.31,2.67-5.96,4.53-8.53l.03-.04c13.49-18.67,43.79-17.85,56.3,3.6,1.56,2.67,3.42,5.15,5.71,7.23,3.73,3.39,10.22,7.58,17.9,9,12.43,2.29,27.24-.39,34.8-12.02,3.17-5.32,6.64-13.86,15.85-13.28,7.2-.21,12.97,6.71,16.14,12.03,7.55,11.63,18.76,15.36,31.19,13.06,6.02-1.11,10.69-3.96,14.09-6.88,3.06-2.63,5.58-5.83,7.56-9.35,13.53-24.05,49.98-22.26,61.03,2.53l11.67-2.48c-2.95-7.87-8.39-16.74-18.41-22.97-4.3-2.67-8.64-4.36-12.79-5.38-13.42-3.31-27.57,0-38.62,8.3-3.5,2.63-6.2,5.25-8.3,7.59-6.98,7.79-9.32,14.79-16.35,16.52-5.38,1.32-10.67-1.13-14.42-3.53-3.48-1.94-9.89-11.12-9.89-11.12,0,0-7.22-14-24.67-12.89-13.11.84-18.58,9.22-20.49,13.34-1.18,2.54-2.49,5.13-4.65,6.91-9.83,8.12-17.14,7.24-21.84,6.09-6.38-1.57-10.61-4.42-16.79-12.6-2.51-3.32-5.36-6.37-8.59-8.99-3.85-3.11-8.77-6.29-15.09-9.08-2.88-.85-20.83-5.83-38.01,4.84-5.45,3.39-9.54,7.55-12.62,11.92l-.03.04"/><polygon class="cls-14" points="599.77 443.2 596.27 454.89 554.32 450.25 558.02 438.47 599.77 443.2"/><polygon class="cls-10" points="629.32 400.72 621.23 409.21 586.22 383.35 594.53 374.88 629.32 400.72"/><polygon class="cls-9" points="763.84 400.72 771.93 409.21 806.95 383.35 798.63 374.88 763.84 400.72"/><polygon class="cls-11" points="682.16 374.04 671.22 376.59 653.78 334.34 664.9 331.94 682.16 374.04"/><polygon class="cls-13" points="721.03 374.04 731.97 376.59 749.41 334.34 738.29 331.94 721.03 374.04"/><polygon class="cls-15" points="791.98 443.65 796.45 454.89 838.36 446.12 833.68 434.81 791.98 443.65"/><path class="cls-12" d="M683.38,393.52s12.86,8.7,14.08,15c0,0,4.01,1,7.36,1.79,0,0-6.47-8.02-20.3-16.9l-1.14.11Z"/><text class="cls-3" transform="translate(894.83 421.9)"><tspan class="cls-20" x="0" y="0">H</tspan><tspan x="42.96" y="0">u</tspan><tspan class="cls-7" x="77.46" y="0">m</tspan><tspan x="128.88" y="0">an</tspan><tspan class="cls-6" x="196.86" y="0">i</tspan><tspan class="cls-21" x="212.58" y="0">t</tspan><tspan x="233.04" y="0">i</tspan><tspan class="cls-2" x="248.64" y="0">e</tspan><tspan x="281.52" y="0">s &amp; </tspan><tspan class="cls-1" x="0" y="72">E</tspan><tspan x="36.36" y="72">ngin</tspan><tspan class="cls-5" x="157.26" y="72">e</tspan><tspan class="cls-24" x="190.38" y="72">e</tspan><tspan class="cls-1" x="223.14" y="72">r</tspan><tspan x="245.64" y="72">ing </tspan><tspan class="cls-22" x="0" y="144">S</tspan><tspan class="cls-4" x="36.9" y="144">p</tspan><tspan class="cls-5" x="72.54" y="144">e</tspan><tspan class="cls-23" x="105.66" y="144">c</tspan><tspan class="cls-19" x="137.52" y="144">i</tspan><tspan x="152.82" y="144">al</tspan><tspan class="cls-8" x="0" y="216">I</tspan><tspan class="cls-25" x="17.16" y="216">nt</tspan><tspan class="cls-24" x="72" y="216">e</tspan><tspan class="cls-25" x="104.76" y="216">r</tspan><tspan class="cls-23" x="127.02" y="216">e</tspan><tspan class="cls-19" x="159.9" y="216">s</tspan><tspan x="189.66" y="216">t </tspan><tspan class="cls-18" x="225.3" y="216">G</tspan><tspan class="cls-25" x="269.76" y="216">r</tspan><tspan x="292.02" y="216">oup</tspan></text></svg>